<?xml version="1.0"?>
<svg version="1.1" xmlns="http://www.w3.org/2000/svg" width="400" height="200" style="border: dashed 2px #aaa"><path fill="#f02b42" d="M16.75732421875,126.388671875q0.0576171875-1.2099609375,0.0576171875-2.3623046875q0-4.17724609375,0.302490234375-8.32568359375t0.417724609375-8.32568359375q0.1728515625-4.7822265625,0.31689453125-9.47802734375t0.576171875-9.44921875q0.115234375-1.18115234375,0.677001953125-1.541259765625t1.685302734375-0.360107421875q0.5185546875,0,1.3828125,0.20166015625t0.8642578125,0.9794921875q0.4033203125,0.0576171875,0.806640625,0.0576171875q0.60498046875,0,1.23876953125-0.115234375q1.037109375-0.1728515625,2.117431640625-0.388916015625t2.146240234375-0.417724609375t2.04541015625-0.20166015625q0.23046875,0,0.648193359375,0.02880859375t0.83544921875,0.1728515625t0.705810546875,0.360107421875t0.2880859375,0.561767578125t-0.677001953125,0.619384765625t-1.771728515625,0.475341796875t-2.3623046875,0.345703125t-2.4775390625,0.244873046875t-2.146240234375,0.158447265625t-1.339599609375,0.0576171875l-0.0576171875,10.83203125l0.0576171875,5.38720703125q0.89306640625,0,2.67919921875-0.0576171875q0.72021484375-0.02880859375,1.4404296875-0.02880859375q1.0947265625,0,2.2470703125,0.0576171875q1.9013671875,0.08642578125,3.42822265625,0.345703125t1.93017578125,0.921875q0,0.4033203125-0.417724609375,0.648193359375t-0.936279296875,0.360107421875t-1.051513671875,0.14404296875t-0.763427734375,0.02880859375q-2.1318359375,0-4.29248046875-0.08642578125t-4.263671875-0.345703125q0,3.54345703125-0.187255859375,7.029296875t-0.187255859375,7.029296875q0,1.52685546875,0.02880859375,3.010498046875t0.345703125,2.952880859375q0.77783203125-0.0576171875,1.685302734375-0.14404296875t1.84375-0.216064453125t1.800537109375-0.216064453125t1.498046875-0.08642578125q0.345703125,0,0.936279296875,0.08642578125t1.2099609375,0.2880859375t1.06591796875,0.504150390625t0.446533203125,0.705810546875q0,0.4609375-0.849853515625,0.821044921875t-2.175048828125,0.576171875t-2.895263671875,0.302490234375t-3.039306640625,0.115234375t-2.650390625,0.02880859375l-1.6708984375,0q-1.58447265625,0-2.319091796875-0.590576171875t-1.022705078125-1.541259765625q-0.23046875-0.77783203125-0.20166015625-1.75732421875l0-0.4033203125z M40.716567382812,120.31005859375q0-6.25146484375,0.561767578125-12.517333984375t2.347900390625-12.344482421875q0.5185546875-1.81494140625,1.35400390625-3.586669921875t2.04541015625-3.154541015625t2.880859375-2.2470703125t3.9755859375-0.8642578125l0.60498046875,0.0576171875q2.4775390625,0.345703125,3.65869140625,2.002197265625t1.18115234375,4.134033203125q0,0.66259765625-0.158447265625,1.656494140625t-0.504150390625,1.915771484375t-0.936279296875,1.570068359375t-1.483642578125,0.648193359375q-0.4033203125-0.0576171875-0.734619140625-0.14404296875t-0.619384765625-0.37451171875q0.4609375-1.00830078125,0.821044921875-2.10302734375t0.360107421875-2.50634765625q0-0.5185546875-0.08642578125-1.3251953125t-0.331298828125-1.598876953125t-0.648193359375-1.3828125t-1.12353515625-0.590576171875q-1.81494140625,0-3.0537109375,2.031005859375t-2.07421875,5.185546875t-1.23876953125,6.9716796875t-0.619384765625,7.375t-0.244873046875,6.42431640625t-0.02880859375,4.047607421875q0,1.3828125-0.02880859375,3.0537109375l0,0.37451171875q0.02880859375,1.46923828125,0.20166015625,2.79443359375q0.23046875,1.498046875,0.89306640625,2.5927734375t2.07421875,1.267578125q0.43212890625,0.0576171875,0.83544921875,0.0576171875q1.6708984375,0,3.02490234375-0.95068359375q1.6708984375-1.18115234375,2.96728515625-3.068115234375t2.3046875-4.1484375t1.858154296875-4.278076171875t1.656494140625-3.341796875t1.6708984375-1.3251953125q0.2880859375,0,0.8642578125,0.115234375t0.576171875,0.54736328125q0,0.115234375-0.0576171875,0.31689453125t-0.14404296875,0.31689453125q-0.77783203125,3.0537109375-1.973388671875,6.337890625t-3.0537109375,5.977783203125t-4.5517578125,4.393310546875t-6.467529296875,1.69970703125q-2.7080078125,0-4.393310546875-1.022705078125t-2.5927734375-2.73681640625t-1.23876953125-3.874755859375t-0.331298828125-4.37890625z M70.840849609375,119.3017578125q0-1.64208984375,0.417724609375-3.385009765625t1.3251953125-3.14013671875t2.290283203125-2.27587890625t3.341796875-0.878662109375q1.46923828125,0,3.096923828125,0.504150390625t2.981689453125,1.4404296875t2.203857421875,2.290283203125t0.849853515625,3.02490234375q0,2.0166015625-0.734619140625,3.83154296875t-2.059814453125,3.240966796875t-3.096923828125,2.2470703125t-3.845947265625,0.821044921875q-1.69970703125,0-2.96728515625-0.619384765625t-2.117431640625-1.656494140625t-1.267578125-2.44873046875t-0.417724609375-2.99609375z M75.075712890625,119.244140625q0,0.5185546875,0.158447265625,1.52685546875t0.475341796875,1.973388671875t0.821044921875,1.6708984375t1.224365234375,0.648193359375q1.52685546875-0.1728515625,2.520751953125-0.993896484375t1.61328125-2.002197265625t0.8642578125-2.56396484375t0.244873046875-2.62158203125q0-1.58447265625-0.619384765625-2.650390625t-2.031005859375-1.728515625q0,0.0576171875,0.0576171875,0.0576171875t0.0576171875-0.0576171875l-0.72021484375-0.1728515625q-0.2880859375-0.115234375-0.705810546875-0.25927734375t-0.821044921875-0.6337890625q-1.12353515625,0.4033203125-1.742919921875,1.037109375t-0.936279296875,1.541259765625t-0.388916015625,2.175048828125t-0.072021484375,3.0537109375z M92.740278320312,111.53784179688q-0.072021484375-0.965087890625,0.115234375-1.771728515625t0.7490234375-1.310791015625t1.800537109375-0.504150390625q0.2880859375,0,0.705810546875,0.072021484375t0.821044921875,0.187255859375t0.677001953125,0.345703125t0.273681640625,0.6337890625l0,3.25537109375q1.12353515625-1.29638671875,2.44873046875-1.858154296875t3.02490234375-0.561767578125q1.29638671875,0,2.56396484375,0.590576171875t2.39111328125,1.570068359375t1.944580078125,2.16064453125t1.195556640625,2.3623046875q0.23046875-1.06591796875,0.5185546875-2.607177734375t0.849853515625-2.952880859375t1.483642578125-2.419921875t2.44873046875-1.00830078125q1.64208984375,0,2.765625,1.18115234375t1.829345703125,3.068115234375t1.06591796875,4.220458984375t0.532958984375,4.609375t0.1728515625,4.249267578125l0,3.096923828125q0,0.345703125-0.25927734375,0.561767578125t-0.648193359375,0.331298828125t-0.806640625,0.14404296875t-0.648193359375,0.02880859375q-0.89306640625,0-1.627685546875-0.273681640625t-0.734619140625-1.397216796875l0-2.5927734375t-0.0576171875-3.356201171875t-0.20166015625-3.60107421875t-0.37451171875-3.269775390625t-0.590576171875-2.3623046875t-0.878662109375-0.921875q-0.72021484375,0-1.037109375,0.806640625t-0.532958984375,2.04541015625t-0.331298828125,2.62158203125t-0.31689453125,2.62158203125t-0.648193359375,2.031005859375t-1.224365234375,0.792236328125q-0.83544921875,0-1.46923828125-0.792236328125t-1.253173828125-1.973388671875t-1.23876953125-2.53515625t-1.368408203125-2.53515625q-0.7490234375-1.2099609375-1.61328125-1.958984375q-0.77783203125-0.72021484375-1.75732421875-0.69140625l-0.14404296875,0q-1.29638671875,0.0576171875-2.031005859375,0.936279296875t-1.12353515625,2.146240234375t-0.475341796875,2.722412109375t-0.08642578125,2.549560546875q0,1.037109375,0.1728515625,2.419921875q0.115234375,0.921875,0.115234375,1.75732421875q0,0.43212890625-0.02880859375,0.83544921875q-0.08642578125,1.2099609375-0.648193359375,2.031005859375t-2.088623046875,0.821044921875q-0.576171875,0-1.4404296875-0.115234375t-1.15234375-0.77783203125q-0.66259765625-1.18115234375-1.00830078125-2.981689453125t-0.5185546875-3.71630859375t-0.20166015625-3.802734375t-0.02880859375-3.240966796875q0-0.95068359375-0.072021484375-1.915771484375z M129.14483398437,111.53784179688q-0.072021484375-0.965087890625,0.115234375-1.771728515625t0.7490234375-1.310791015625t1.800537109375-0.504150390625q0.2880859375,0,0.705810546875,0.072021484375t0.821044921875,0.187255859375t0.677001953125,0.345703125t0.273681640625,0.6337890625l0,3.25537109375q1.12353515625-1.29638671875,2.44873046875-1.858154296875t3.02490234375-0.561767578125q1.29638671875,0,2.56396484375,0.590576171875t2.39111328125,1.570068359375t1.944580078125,2.16064453125t1.195556640625,2.3623046875q0.23046875-1.06591796875,0.5185546875-2.607177734375t0.849853515625-2.952880859375t1.483642578125-2.419921875t2.44873046875-1.00830078125q1.64208984375,0,2.765625,1.18115234375t1.829345703125,3.068115234375t1.06591796875,4.220458984375t0.532958984375,4.609375t0.1728515625,4.249267578125l0,3.096923828125q0,0.345703125-0.25927734375,0.561767578125t-0.648193359375,0.331298828125t-0.806640625,0.14404296875t-0.648193359375,0.02880859375q-0.89306640625,0-1.627685546875-0.273681640625t-0.734619140625-1.397216796875l0-2.5927734375t-0.0576171875-3.356201171875t-0.20166015625-3.60107421875t-0.37451171875-3.269775390625t-0.590576171875-2.3623046875t-0.878662109375-0.921875q-0.72021484375,0-1.037109375,0.806640625t-0.532958984375,2.04541015625t-0.331298828125,2.62158203125t-0.31689453125,2.62158203125t-0.648193359375,2.031005859375t-1.224365234375,0.792236328125q-0.83544921875,0-1.46923828125-0.792236328125t-1.253173828125-1.973388671875t-1.23876953125-2.53515625t-1.368408203125-2.53515625q-0.7490234375-1.2099609375-1.61328125-1.958984375q-0.77783203125-0.72021484375-1.75732421875-0.69140625l-0.14404296875,0q-1.29638671875,0.0576171875-2.031005859375,0.936279296875t-1.12353515625,2.146240234375t-0.475341796875,2.722412109375t-0.08642578125,2.549560546875q0,1.037109375,0.1728515625,2.419921875q0.115234375,0.921875,0.115234375,1.75732421875q0,0.43212890625-0.02880859375,0.83544921875q-0.08642578125,1.2099609375-0.648193359375,2.031005859375t-2.088623046875,0.821044921875q-0.576171875,0-1.4404296875-0.115234375t-1.15234375-0.77783203125q-0.66259765625-1.18115234375-1.00830078125-2.981689453125t-0.5185546875-3.71630859375t-0.20166015625-3.802734375t-0.02880859375-3.240966796875q0-0.95068359375-0.072021484375-1.915771484375z"/><path fill="#" d=""/></svg>
