<?xml version="1.0" standalone="no"?>
<!DOCTYPE svg PUBLIC "-//W3C//DTD SVG 20010904//EN"
 "http://www.w3.org/TR/2001/REC-SVG-20010904/DTD/svg10.dtd">
<svg version="1.0" xmlns="http://www.w3.org/2000/svg"
 width="400.000000pt" height="87.000000pt" viewBox="0 0 400.000000 87.000000"
 preserveAspectRatio="xMidYMid meet">
<metadata>
Created by potrace 1.16, written by Peter Selinger 2001-2019
</metadata>
<g transform="translate(0.000000,87.000000) scale(0.100000,-0.100000)"
fill="#000000" stroke="none">
<path d="M1805 863 c-165 -22 -344 -57 -376 -73 -10 -6 -26 -10 -36 -10 -30 0
-235 -107 -273 -142 -87 -81 -114 -149 -98 -239 11 -61 51 -124 105 -164 21
-16 40 -33 41 -37 2 -4 8 -8 12 -8 5 0 31 -13 57 -28 26 -16 57 -31 68 -34 11
-4 44 -16 74 -27 67 -25 181 -55 281 -72 49 -9 164 -14 330 -14 254 0 366 10
475 41 28 8 75 22 105 30 30 9 102 39 160 67 138 66 219 144 239 229 12 47 12
65 1 105 -21 75 -94 162 -170 200 -19 10 -37 21 -40 24 -5 7 -116 52 -190 79
-19 6 -56 16 -82 20 -27 5 -52 11 -57 14 -5 3 -72 15 -150 26 -131 19 -381 25
-476 13z m494 -39 c53 -8 119 -22 147 -30 28 -8 60 -14 72 -14 11 0 24 -4 27
-10 3 -5 15 -10 25 -10 26 0 160 -62 214 -99 52 -36 116 -98 134 -130 7 -12
16 -45 19 -72 13 -108 -61 -204 -219 -282 -95 -48 -265 -107 -304 -107 -12 0
-51 -8 -86 -17 -92 -25 -561 -25 -661 0 -38 9 -78 17 -91 17 -32 0 -199 57
-280 95 -101 49 -170 103 -210 165 -89 138 -18 265 214 381 46 23 97 45 114
50 291 73 319 76 570 78 157 1 247 -3 315 -15z"/>
<path d="M1422 543 c4 -43 5 -124 2 -180 l-7 -103 92 0 91 0 0 34 0 35 -55 -6
-55 -6 0 52 0 51 38 0 c37 0 38 1 34 33 -3 31 -6 33 -38 29 -34 -4 -34 -4 -34
37 l0 41 56 0 c54 0 56 1 50 23 -3 12 -6 25 -6 30 0 4 -40 7 -88 7 l-88 0 8
-77z"/>
<path d="M1654 545 c-71 -49 -73 -226 -4 -282 27 -22 85 -16 114 13 43 44 34
114 -15 114 -22 0 -30 -6 -35 -24 -3 -14 -3 -34 1 -45 4 -15 2 -21 -8 -21 -19
0 -27 30 -27 102 0 61 13 108 30 108 6 0 10 -12 9 -27 -4 -55 0 -63 31 -63 17
0 33 7 39 18 8 13 10 4 11 -40 0 -31 4 -68 9 -81 24 -62 92 -86 138 -49 44 34
67 154 42 219 -29 78 -94 96 -148 42 -17 -17 -31 -38 -31 -47 -1 -9 -10 0 -21
20 -10 21 -28 42 -38 48 -28 14 -73 12 -97 -5z"/>
<path d="M2095 550 c-3 -5 -23 -10 -43 -10 l-37 0 -1 -140 -2 -140 34 0 34 0
0 89 c0 93 6 125 21 115 5 -3 9 -48 9 -100 l0 -94 29 0 c26 0 29 3 35 46 3 26
6 68 6 95 0 56 15 72 31 32 10 -26 6 -102 -8 -161 -5 -20 -1 -22 31 -22 44 0
50 17 51 140 0 132 -36 186 -98 146 -22 -15 -26 -15 -37 -1 -14 17 -46 20 -55
5z"/>
<path d="M2385 550 c-3 -5 -22 -10 -41 -10 l-34 0 0 -102 c0 -57 -3 -120 -6
-140 l-7 -38 36 0 36 0 3 102 c2 70 7 103 16 106 9 3 12 -21 12 -97 l0 -101
29 0 c34 0 41 16 41 110 0 73 13 105 31 80 6 -9 8 -49 4 -107 l-5 -93 35 0 35
0 0 128 c-1 109 -3 130 -19 150 -23 26 -48 28 -73 5 -17 -15 -19 -15 -36 0
-21 19 -48 22 -57 7z"/>
</g>
</svg>
